<?xml version="1.0" standalone="no"?><!DOCTYPE svg PUBLIC "-//W3C//DTD SVG 1.1//EN" "http://www.w3.org/Graphics/SVG/1.1/DTD/svg11.dtd"><svg t="1574348711661" class="icon" viewBox="0 0 1050 1024" version="1.1" xmlns="http://www.w3.org/2000/svg" p-id="6762" xmlns:xlink="http://www.w3.org/1999/xlink" width="131.25" height="128"><defs><style type="text/css"></style></defs><path d="M359.712821 971.487179a173.292308 44.635897 0 1 0 346.584615 0 173.292308 44.635897 0 1 0-346.584615 0Z" fill="#C6C4C4" p-id="6763"></path><path d="M514.625641 87.171282c-0.525128-3.675897-4.726154-24.155897-4.201026-42.010256-12.603077-5.77641-18.904615-19.429744-16.804102-37.284103l5.251282 0.525128c-2.100513 18.904615 5.77641 27.306667 12.077949 30.982564 1.050256-8.927179 3.150769-16.804103 7.876923-21.005128 3.675897-3.675897 8.927179-4.201026 14.703589-2.100513h0.525129l0.525128 0.525129c11.552821 11.552821 8.402051 19.954872 6.301538 22.580512-4.201026 6.826667-15.228718 9.977436-25.206154 7.351795 0 14.70359 2.100513 30.982564 3.675898 39.384616l-4.726154 1.050256z m1.575385-45.686154c8.402051 2.625641 17.329231 0.525128 20.48-4.726154 2.625641-4.201026 1.050256-9.977436-5.251282-15.753846-3.675897-1.050256-6.826667-0.525128-9.452308 1.050257-3.150769 3.675897-5.251282 10.502564-5.77641 19.429743z" fill="#B47065" p-id="6764"></path><path d="M454.235897 596.020513s-176.968205 176.968205-47.261538 204.8l47.261538-204.8z" fill="#FEE6E2" p-id="6765"></path><path d="M409.074872 803.971282l-2.625641-0.525128c-26.25641-5.77641-42.010256-17.854359-47.261539-36.233846-17.854359-60.914872 88.746667-168.566154 93.472821-173.292308l6.301538-6.301538-49.887179 216.35282z m40.434872-199.02359c-23.105641 24.681026-100.299487 111.852308-85.595898 161.214359 4.726154 15.753846 18.379487 26.25641 40.96 32.032821l44.635898-193.24718z" fill="#B47065" p-id="6766"></path><path d="M606.523077 596.020513s176.968205 176.968205 47.261538 204.8l-47.261538-204.8z" fill="#FEE6E2" p-id="6767"></path><path d="M651.684103 803.971282l-49.88718-216.35282 6.301539 6.301538c4.726154 4.726154 111.327179 112.377436 93.47282 173.292308-5.251282 18.379487-21.530256 30.457436-47.261538 36.233846l-2.625641 0.525128z m-40.434872-199.02359l44.635897 192.722052c22.580513-5.251282 36.233846-16.278974 40.96-32.032821 14.70359-49.362051-62.490256-136.008205-85.595897-160.689231z" fill="#B47065" p-id="6768"></path><path d="M454.235897 596.020513s-154.912821 278.317949 26.256411 378.092308h36.758974s-63.015385-66.691282-36.758974-136.533334c0 0 55.138462 25.731282 110.276923 0 0 0 8.927179 102.4-47.261539 136.533334h47.261539s169.61641-115.528205 21.005128-378.092308h-157.538462z" fill="#FEE6E2" p-id="6769"></path><path d="M591.819487 976.738462h-57.238974l7.876923-4.726154c47.786667-29.407179 47.261538-111.852308 46.211282-130.231795-47.261538 20.48-94.523077 4.201026-106.075897-0.525128-23.105641 66.691282 36.758974 130.756923 37.284102 131.282051l4.201026 4.201026h-43.585641l-0.525129-0.525129c-40.96-22.580513-68.266667-56.713846-80.869743-100.299487-34.658462-120.254359 53.037949-279.893333 53.563077-281.468718l0.525128-1.575384h160.689231l0.525128 1.575384c42.535385 75.093333 85.070769 186.945641 45.686154 289.870769-23.630769 61.965128-65.641026 90.847179-67.21641 91.897436l-1.050257 0.525129z m-39.909743-5.251283h37.80923c5.251282-3.675897 43.060513-33.083077 64.59077-89.271794 38.859487-100.299487-2.625641-209.526154-44.635898-283.569231H455.811282c-8.402051 15.753846-85.070769 163.314872-52.51282 275.692308 12.077949 42.535385 38.334359 75.093333 78.244102 97.148717h30.457436c-13.653333-16.278974-56.188718-74.568205-33.608205-134.957948l1.050256-2.625641 2.625641 1.050256c0.525128 0 54.613333 24.681026 108.176411 0l3.150769-1.575384 0.525128 3.675897s2.100513 26.25641-2.625641 56.188718c-6.301538 36.233846-19.429744 63.015385-39.384615 78.244102z" fill="#B47065" p-id="6770"></path><path d="M525.128205 65.641026c181.169231 0 329.780513 123.405128 328.205128 275.692307-3.150769 241.558974-147.035897 275.692308-328.205128 275.692308S191.146667 565.037949 196.923077 341.333333c4.201026-152.287179 147.035897-275.692308 328.205128-275.692307z" fill="#FEE6E2" p-id="6771"></path><path d="M525.128205 619.651282c-127.081026 0-214.777436-26.25641-267.815384-80.869744C213.202051 493.620513 192.196923 426.929231 194.297436 341.333333c4.201026-155.963077 149.661538-278.317949 330.830769-278.317948 99.249231 0 192.196923 36.758974 255.737436 100.824615 49.362051 49.887179 76.14359 112.902564 75.093333 177.493333-1.575385 112.902564-33.608205 187.995897-98.198974 230.531282-64.065641 42.010256-153.337436 47.786667-232.631795 47.786667z m0-551.384615c-178.54359 0-321.378462 119.729231-325.579487 273.066666-2.100513 84.020513 18.379487 149.13641 61.44 193.772308 52.512821 53.563077 138.633846 79.294359 264.139487 79.294359 199.02359 0 322.428718-45.686154 325.579487-273.066667 0.525128-63.015385-25.206154-124.980513-73.517948-173.817436-62.490256-63.015385-154.387692-99.249231-252.061539-99.24923z" fill="#B47065" p-id="6772"></path><path d="M680.041026 477.866667a31.507692 18.379487 0 1 0 63.015384 0 31.507692 18.379487 0 1 0-63.015384 0Z" fill="#FFAEAA" p-id="6773"></path><path d="M301.948718 477.866667a31.507692 18.379487 0 1 0 63.015385 0 31.507692 18.379487 0 1 0-63.015385 0Z" fill="#FFAEAA" p-id="6774"></path><path d="M364.964103 228.430769h31.507692v10.502564h-31.507692zM638.030769 228.430769h26.25641v10.502564h-26.25641z" fill="#B47065" p-id="6775"></path><path d="M383.34359 443.733333c-17.854359 0-35.18359-5.77641-48.836923-16.804102l-37.809231 27.306666c0 17.329231-14.178462 32.032821-31.507692 32.032821s-32.032821-14.178462-32.032821-31.507692 14.178462-32.032821 31.507692-32.032821c5.251282 0 9.977436 1.050256 14.70359 3.675898l33.083077-24.155898c-22.055385-39.384615-7.876923-88.746667 30.982564-110.802051 39.384615-22.055385 88.746667-7.876923 110.802051 30.982564 22.055385 39.384615 7.876923 88.746667-30.982564 110.802051-12.077949 6.826667-25.731282 10.502564-39.909743 10.502564z" fill="#FFFFFF" p-id="6776"></path><path d="M264.664615 492.045128c-20.48 0-37.284103-16.804103-37.284102-36.758974 0-9.977436 3.675897-19.429744 11.027692-26.25641 6.826667-6.826667 16.278974-11.027692 26.25641-11.027693 4.726154 0 9.452308 1.050256 13.653334 2.625641l26.781538-19.429743c-19.954872-40.96-4.726154-91.372308 35.18359-113.952821 19.954872-11.552821 43.585641-14.178462 65.641026-7.876923 22.055385 6.301538 40.96 21.005128 51.987692 40.96 23.630769 41.485128 8.402051 94.523077-33.083077 118.153846-13.128205 7.351795-27.831795 11.027692-42.535385 11.027693-17.329231 0-34.658462-5.251282-48.836923-15.228718l-32.557948 23.630769c-0.525128 18.379487-16.278974 33.608205-36.233847 34.133333z m0-64.065641c-7.351795 0-13.653333 2.625641-18.904615 7.876923s-7.876923 11.552821-7.876923 18.904616 2.625641 13.653333 7.876923 18.904615 11.552821 7.876923 18.904615 7.876923c14.70359 0 26.781538-12.077949 26.781539-26.781538v-2.625641l43.060513-30.982564 3.150769 2.625641c13.128205 9.977436 29.407179 15.228718 45.686154 15.228717 13.128205 0 25.731282-3.150769 37.284102-9.977435 36.758974-20.48 49.887179-67.21641 28.882052-103.450257-9.977436-17.854359-26.25641-30.457436-45.686154-36.233846-19.429744-5.251282-39.909744-3.150769-57.764103 6.826667-17.854359 9.977436-30.457436 26.25641-36.233846 45.686154-5.251282 19.429744-3.150769 39.909744 6.826667 57.764102l2.100513 4.201026-39.384616 28.882051-2.625641-1.575385c-3.675897-2.100513-7.876923-3.150769-12.077949-3.150769z" fill="#B47065" p-id="6777"></path><path d="M661.661538 443.733333c17.854359 0 35.18359-5.77641 48.836924-16.804102l37.80923 27.306666c0 17.329231 14.178462 32.032821 31.507693 32.032821s32.032821-14.178462 32.03282-31.507692-14.178462-32.032821-31.507692-32.032821c-5.251282 0-9.977436 1.050256-14.70359 3.675898l-33.083077-24.155898c22.055385-39.384615 7.876923-88.746667-30.982564-110.802051-39.384615-22.055385-88.746667-7.876923-110.802051 30.982564-22.055385 39.384615-7.876923 88.746667 30.982564 110.802051 12.077949 6.826667 25.731282 10.502564 39.909743 10.502564z" fill="#FFFFFF" p-id="6778"></path><path d="M780.340513 492.045128c-19.429744 0-35.708718-15.228718-36.758975-34.658461l-32.557948-23.63077c-14.178462 9.977436-31.507692 15.228718-48.836923 15.228718-14.70359 0-29.407179-3.675897-42.535385-11.027692-42.010256-23.105641-56.713846-76.14359-33.608205-117.628718 23.630769-41.485128 76.14359-56.713846 118.153846-33.083077 19.954872 11.552821 34.658462 29.932308 40.96 51.987693 5.77641 21.005128 3.675897 42.535385-5.77641 61.44l26.781538 19.429743c4.201026-1.575385 9.452308-2.625641 14.178462-2.625641 9.977436 0 19.429744 3.675897 26.25641 11.027692 6.826667 6.826667 11.027692 16.278974 11.027692 26.256411s-3.675897 19.429744-11.027692 26.25641c-7.351795 6.826667-16.804103 11.027692-26.25641 11.027692z m-69.842051-71.417436l43.060512 30.982564v2.625641c0 14.70359 12.077949 26.781538 26.781539 26.781539 6.826667 0 13.653333-2.625641 18.904615-7.876923s7.876923-11.552821 7.876923-18.904616-2.625641-13.653333-7.876923-18.904615-11.552821-7.876923-18.904615-7.876923c-4.201026 0-8.402051 1.050256-12.077949 3.150769l-2.625641 1.575385-39.384615-28.882051 2.100513-4.201026c9.977436-17.854359 12.603077-38.334359 6.826666-57.764103-5.251282-19.429744-18.379487-35.708718-36.233846-45.686154-36.758974-20.48-82.970256-7.351795-103.450256 28.882052-20.48 36.758974-7.351795 82.970256 28.882051 103.450256 11.552821 6.301538 24.155897 9.977436 37.284102 9.977436 16.278974 0 32.557949-5.251282 45.686154-15.228718l3.15077-2.100513z" fill="#B47065" p-id="6779"></path><path d="M467.364103 497.29641s-8.402051 58.814359-15.753847 94.523077c45.686154 17.854359 96.098462 17.854359 141.784616 0 0 0-14.178462-76.14359-15.753846-94.523077 0 0-28.356923 3.150769-57.764103-13.653333 0 0.525128-35.708718 14.178462-52.51282 13.653333z" fill="#FFAEAA" p-id="6780"></path><path d="M522.502564 610.724103c-24.681026 0-49.362051-4.726154-72.99282-13.653334l-4.201026-1.575384 1.050256-4.201026c7.351795-35.18359 15.753846-93.472821 15.753847-93.997949l0.525128-4.726154h4.726154c13.128205 0.525128 40.96-9.452308 50.412307-13.128205l2.100513-1.050256 2.100513 1.050256c27.306667 15.753846 54.088205 12.603077 54.613333 12.603077l5.251282-0.525128 0.525128 5.251282c1.575385 17.854359 15.753846 93.472821 15.753847 93.997949l0.525128 4.201025-4.201026 1.575385c-22.580513 9.452308-47.261538 14.178462-71.942564 14.178462z m-65.115897-22.055385c42.010256 15.228718 87.69641 15.228718 129.706666 0-2.625641-15.228718-11.552821-65.115897-14.703589-85.595897-9.452308 0-30.982564-1.050256-53.563077-13.128206-7.351795 2.625641-32.032821 11.552821-47.786667 12.603077-1.050256 13.653333-7.351795 56.188718-13.653333 86.121026z" fill="#B47065" p-id="6781"></path><path d="M562.937436 501.497436c-6.826667 0-14.70359-1.575385-22.055385-5.77641-19.429744-10.502564-23.630769-8.927179-34.133333-5.251282-4.726154 1.575385-11.027692 4.201026-20.48 5.77641-22.055385 2.100513-34.133333-1.050256-37.809231-9.977436-5.77641-12.077949 9.452308-27.306667 12.603077-30.457436l7.351795 7.351795c-5.251282 5.251282-12.077949 14.70359-9.977436 18.379487 0.525128 1.050256 4.201026 5.77641 26.781539 3.675898 7.876923-1.575385 13.128205-3.150769 18.379487-5.251283 12.603077-4.726154 19.954872-6.301538 42.535384 5.776411 12.077949 6.826667 24.155897 5.251282 31.507693 1.050256 2.100513-1.050256 5.251282-4.201026 5.251282-7.876923 0-4.726154-5.77641-10.502564-15.228718-15.228718l4.726154-9.452308c16.804103 8.402051 20.48 17.854359 21.005128 24.155898 0.525128 6.826667-3.150769 13.128205-10.502564 17.329231-5.251282 3.675897-12.077949 5.77641-19.954872 5.77641z" fill="#B47065" p-id="6782"></path></svg>