<?xml version="1.0" standalone="no"?><!DOCTYPE svg PUBLIC "-//W3C//DTD SVG 1.1//EN" "http://www.w3.org/Graphics/SVG/1.1/DTD/svg11.dtd"><svg t="1575692892474" class="icon" viewBox="0 0 1024 1024" version="1.1" xmlns="http://www.w3.org/2000/svg" p-id="12013" width="128" height="128" data-spm-anchor-id="a313x.7781069.0.i33" xmlns:xlink="http://www.w3.org/1999/xlink"><defs><style type="text/css"></style></defs><path d="M928 512h-128a288 288 0 0 0-288-288V96a416 416 0 0 1 416 416z" fill="#d81e06" p-id="12014" data-spm-anchor-id="a313x.7781069.0.i30" class=""></path><path d="M224 512H96A416 416 0 0 1 512 96v128a288 288 0 0 0-288 288z" fill="#b721ff" p-id="12015" data-spm-anchor-id="a313x.7781069.0.i24" class=""></path><path d="M512 928A416 416 0 0 1 96 512h128a288 288 0 0 0 288 288z" fill="#f9d423" p-id="12016" data-spm-anchor-id="a313x.7781069.0.i31" class=""></path><path d="M512 928v-128a288 288 0 0 0 288-288h128a416 416 0 0 1-416 416z" fill="#00e3ae" p-id="12017" data-spm-anchor-id="a313x.7781069.0.i34" class=""></path></svg>